Coordinates
version=1
nRows=13
nColumns=22
inDegrees=yes

Units are S.I. units (second, meters, Newtons, ...)
If the header above contains a line with 'inDegrees', this indicates whether rotational values are in degrees (yes) or radians (no).

endheader
time	pelvis_tilt	pelvis_list	pelvis_rotation	pelvis_tx	pelvis_ty	pelvis_tz	hip_flexion_r	hip_adduction_r	hip_rotation_r	knee_angle_r	ankle_angle_r	subtalar_angle_r	hip_flexion_l	hip_adduction_l	hip_rotation_l	knee_angle_l	ankle_angle_l	subtalar_angle_l	lumbar_extension	lumbar_bending	lumbar_rotation
      4.24000000	      1.61060775	     -2.83026312	    -77.72568482	      0.00128239	      0.99608717	      0.83015042	     21.47859760	      0.72306939	    -11.67479092	    -13.64724451	     -0.90442362	     -0.31171268	     -7.09112102	      4.16489411	     -5.54005855	    -20.03046010	     19.32151342	      0.51147759	    -14.03924269	     -0.71235598	     -3.17372194
      4.25000000	      1.38278515	     -2.93885659	    -77.65933586	      0.00271154	      0.99538501	      0.83800025	     21.42161404	      0.93450056	    -11.80529748	    -14.37973445	     -1.99466739	     -1.34158222	     -7.10894951	      3.83596367	     -5.39183708	    -21.07025023	     19.43227094	      0.88655871	    -13.86048002	     -0.34167464	     -3.15643478
      4.26000000	      1.11884301	     -3.06025956	    -77.64726901	      0.00408439	      0.99485349	      0.84586576	     21.40561136	      1.18121143	    -11.88364283	    -15.21928535	     -2.93721168	     -2.39608180	     -7.08653577	      3.47657066	     -5.27099186	    -22.19336272	     19.44196664	      1.33133958	    -13.68547324	      0.07255641	     -3.06602310
      4.27000000	      0.81787313	     -3.19588542	    -77.69496001	      0.00534969	      0.99452019	      0.85375042	     21.42186421	      1.47588623	    -11.88446551	    -16.15053013	     -3.64267459	     -3.40846095	     -7.03022587	      3.08059737	     -5.18664170	    -23.38636993	     19.32973493	      1.85242694	    -13.51821597	      0.51858991	     -2.91206129
      4.28000000	      0.49626493	     -3.34739930	    -77.80707167	      0.00652193	      0.99439274	      0.86162527	     21.45399267	      1.80940236	    -11.79237153	    -17.15170255	     -4.05419869	     -4.30990003	     -6.94147366	      2.66543621	     -5.15080974	    -24.65395617	     19.10667386	      2.43564055	    -13.37014724	      0.98487105	     -2.69972994
      4.29000000	      0.16587198	     -3.51509942	    -77.98023719	      0.00758513	      0.99448104	      0.86947582	     21.47081289	      2.18047929	    -11.60057611	    -18.16785863	     -4.20668179	     -5.06389723	     -6.82194086	      2.23843448	     -5.16726570	    -25.99480356	     18.74053585	      3.06494988	    -13.24907098	      1.45509805	     -2.44558897
      4.30000000	     -0.15405613	     -3.69103617	    -78.20415933	      0.00854144	      0.99477974	      0.87731599	     21.44953282	      2.57095634	    -11.33259510	    -19.15377533	     -4.09955741	     -5.69191729	     -6.68011324	      1.82164870	     -5.20027315	    -27.38205641	     18.19506502	      3.76285339	    -13.14755220	      1.90252273	     -2.15864331
      4.31000000	     -0.44632626	     -3.87310173	    -78.46128491	      0.00938492	      0.99527103	      0.88510098	     21.36718776	      2.96254463	    -11.01558447	    -20.06344945	     -3.80486505	     -6.17583246	     -6.50566600	      1.42573238	     -5.24854312	    -28.82746819	     17.48392471	      4.49463318	    -13.07457402	      2.30482529	     -1.86755161
      4.32000000	     -0.69739812	     -4.05147258	    -78.72361893	      0.01015179	      0.99593696	      0.89280920	     21.21142196	      3.32715239	    -10.70757205	    -20.85736627	     -3.37528944	     -6.54972366	     -6.29143611	      1.06424816	     -5.27248396	    -30.31911642	     16.57906185	      5.28535191	    -13.02020867	      2.64734141	     -1.59442971
      4.33000000	     -0.90774371	     -4.22091244	    -78.98439827	      0.01082177	      0.99673072	      0.90040306	     20.97950594	      3.66427270	    -10.41063380	    -21.51259731	     -2.88229580	     -6.82469258	     -6.01627423	      0.72252111	     -5.31540936	    -31.87606839	     15.51310863	      6.03765414	    -12.98402958	      2.92947242	     -1.37636652
      4.34000000	     -1.08349654	     -4.36552165	    -79.23412322	      0.01139293	      0.99760407	      0.90786274	     20.68211135	      3.97294650	    -10.14461727	    -22.00950481	     -2.36235606	     -7.04834412	     -5.65847671	      0.39255190	     -5.36902434	    -33.49643381	     14.29851097	      6.72717858	    -12.94357280	      3.15145208	     -1.19840811
      4.35000000	     -1.21232389	     -4.48670982	    -79.41641486	      0.01199137	      0.99855231	      0.91513213	     20.33487768	      4.20873237	     -9.98825181	    -22.38584656	     -1.84338542	     -7.24860993	     -5.22312024	      0.09852337	     -5.32782809	    -35.15817222	     12.90901396	      7.43313902	    -12.90487396	      3.32126487	     -1.13825205
      4.36000000	     -1.30952763	     -4.57732729	    -79.55372833	      0.01255548	      0.99952088	      0.92218945	     19.94018292	      4.40027780	     -9.89384572	    -22.61111437	     -1.34182091	     -7.42270715	     -4.68465570	     -0.18860404	     -5.27757334	    -36.88806760	     11.43787355	      8.03948254	    -12.85763149	      3.44161272	     -1.15190458
